<?xml version="1.0" standalone="yes"?>
<svg width="637" height="797">
<path style="fill:#000000; stroke:none;" d="M0 0L0 407L1 407C1.03551 353.388 38.4066 299.977 70.3997 260C92.3256 232.602 117.751 208.318 141.961 183C182.208 140.91 223.396 99.6116 263.09 57C280.629 38.1707 303.193 21.0203 318 0L0 0z"/>
<path style="fill:#cca25e; stroke:none;" d="M160 559C150.789 572.052 155.355 586.191 170 592.384C190.872 601.211 215.115 601.424 237 606.895C268.467 614.762 297.572 633.915 318 659L319 659C341.118 633.682 368.365 615.338 401 606.735C422.518 601.062 446.381 601.255 467 592.536C482.064 586.165 486.404 572.222 477 559C504.863 556.801 532.298 556.738 559 546.947C573.489 541.634 586.374 533.184 597.999 523.13C623.476 501.097 633.806 467.585 636.089 435C642.06 349.819 586.518 274.522 529 217C510.014 198.013 491.772 178.229 473.015 159C450.798 136.225 428.597 113.281 406.91 90C387.333 68.9832 366.809 48.7576 346.961 28C338.147 18.7825 327.353 10.438 320 0C307.239 5.95081 296.405 21.8071 286.91 32C265.78 54.6838 243.897 77.0677 222 99C200.009 121.026 179.003 143.997 157 166C138.693 184.307 120.936 203.283 103.039 222C48.9602 278.556 -4.74537 350.871 0.910494 433C3.16205 465.695 12.2356 496.34 36 519.999C47.8256 531.772 62.312 541.194 78 546.947C104.674 556.728 132.165 556.803 160 559z"/>
<path style="fill:#000000; stroke:none;" d="M320 0C324.833 10.3633 337.007 18.915 344.996 27C361.556 43.7589 377.335 61.3354 394 78C429.332 113.332 463.513 149.893 498.039 186C528.942 218.318 560.327 249.486 586.421 286C610.286 319.395 635.972 363.62 636 406L637 406L637 0L320 0M318 31C263.968 86.1701 210.549 142.491 157.91 199C112.778 247.45 63.4467 296.939 39.061 360C22.5022 402.82 22.0644 457.428 51.669 495C75.9943 525.872 121.469 541.894 160 542C152.983 531.727 144.769 518.439 160 510.14C170.344 504.503 182.832 511.134 193 513.845C203.666 516.689 214.208 516.345 225 514.386C245.321 510.697 265.747 501.259 279.91 486C286.357 479.053 289.803 468.963 297 463C296.262 498.734 265.489 532.79 231 540L231 541C243.201 541.008 259.083 541.547 270 547.518C273.126 549.227 279.944 552.828 279.944 557.003C279.944 561.266 273.149 565.036 270 566.907C256.983 574.639 241.379 573.135 227 572L227 573C265.288 581.862 291.842 610.193 319 636C339.855 607.867 375.415 581.196 410 573L410 572C395.621 573.135 380.017 574.639 367 566.907C363.979 565.112 356.178 560.719 356.77 556.428C357.292 552.65 364.023 549.146 367 547.518C377.902 541.555 393.814 541.034 406 541L406 540C371.133 531.934 341.557 499.268 340 463C347.292 468.723 350.665 479.099 357.09 485.999C370.817 500.741 390.429 510.03 410 513.996C421.032 516.232 432.011 516.865 443 514.105C453.988 511.345 466.889 504.21 477.961 510.558C492.401 518.838 483.656 532.256 477 542C515.475 541.894 559.685 526.187 584.536 496C613.819 460.43 615.274 405.627 599.575 364C565.976 274.908 488.157 210.704 425.09 143C400.033 116.101 374.845 89.152 349.004 63C338.839 52.7124 329.833 39.3408 318 31z"/>
<path style="fill:#01803d; stroke:none;" d="M318 53C299.715 72.9116 284.669 98.1391 288.289 126C290.145 140.283 296.585 153.431 301 167L300 167C282.925 132.722 236.353 138.136 225 174C234.905 172.666 242.922 170.119 253 172.503C285.526 180.198 303.354 216.724 304 248L303 248C294.438 221.133 264.068 215.587 241 225C241.139 218.206 242.368 211.379 239.16 205.001C232.124 191.008 212.208 191.003 200 197.402C187.143 204.14 182.057 217.707 172.826 227.999C160.306 241.959 142.499 249.528 124 251C142.594 273.499 184.348 270.219 207 257C204.474 264.9 203.205 272.679 204.289 281C207.411 304.963 234.648 321.408 256.999 308.64C268.313 302.178 277.245 282.625 268 271C265.033 276.083 262.966 281.672 257.985 285.196C248.805 291.69 237.366 285.952 233.916 276C228.173 259.432 242.622 246.684 258 245.171C270.002 243.989 281.312 250.095 287.895 260C301.033 279.769 287.251 293.176 282.159 312C279.47 321.939 281.392 331.633 285 341C264.846 327.415 241.224 322.99 218 331.814C197.099 339.756 175.88 357.551 152 351.485C124.945 344.614 116.454 302.095 151 302C136.553 317.284 150.03 341.184 171 333.891C192.882 326.282 186.687 295.432 171 285.108C151.273 272.125 118.524 278.589 107.81 300C100.789 314.031 102.95 334.939 109 349C101.125 343.616 93.8237 336.051 84 334.329C65.9395 331.163 52.3762 349.106 63.652 364.985C69.7844 373.621 81.2122 374.973 91 375L91 376C44.6197 389.361 37.8705 447.002 64.669 481C80.4102 500.97 107.029 509.351 131 514C130.051 509.851 128.106 505.319 128.703 501C132.752 471.696 175.824 492.031 186 468L187 468C187 476.888 184.858 489.35 190.652 496.895C198.151 506.66 216.975 502.789 221.387 491.999C225.503 481.93 220.019 472.831 214 465C261.788 483.403 299.234 418.891 260.91 385.468C243.391 370.188 204.35 381.436 217.573 408.999C224.771 424.006 249.149 419.739 252 404L253 404C253 411.383 253.631 418.978 250.881 426C243.904 443.819 220.16 442.319 208.093 430.815C194.281 417.647 192.907 393.699 202.464 378C214.635 358.007 241.946 350.566 262 363.548C271.267 369.547 276.034 379.989 285 386.197C295.318 393.34 302.647 387.219 306 377L308 377C312.968 390.655 302.04 405.115 301.09 419C300.319 430.256 309.323 432.591 311.682 442C314.79 454.395 311.399 471.517 309.718 484C306.733 506.159 288.008 523.961 288.008 546C288.008 553.757 290.555 561.594 297.015 566.363C300.801 569.157 309.006 570.825 310.183 576.043C311.957 583.908 300.089 589.135 298.831 596C298.206 599.408 301.47 602.549 303.35 605C308.578 611.814 313.088 619.827 319 626C323.285 619.024 327.922 612.425 333.003 606C334.941 603.549 338.403 600.38 338.368 597C338.292 589.603 323.485 583.319 327.133 575.105C329.169 570.521 336.214 569.11 339.996 566.363C347.77 560.717 349.742 551.122 348.829 542C347.343 527.131 336.706 516.4 331.464 503C326.164 489.452 325.669 472.387 325.039 458C324.812 452.81 323.655 444.746 326.028 440C329.262 433.532 335.593 430.983 335.959 423C336.663 407.649 323.675 391.722 329 377L331 377C334.443 387.111 341.753 393.283 352 386.197C360.972 379.993 365.838 369.726 375 363.599C393.813 351.016 421.289 357.229 433.452 376C443.989 392.262 443.721 416.897 428.96 430.895C416.961 442.274 393.047 443.69 386.119 426C383.369 418.978 384 411.383 384 404L385 404C387.914 420.089 411.984 423.696 419.547 408.999C432.766 383.31 395.445 369.486 378 384.214C338.819 417.29 373.353 484.119 423 465C416.766 473.17 411.345 482.774 416.189 492.985C421.006 503.139 439.172 506.149 446.351 496.895C451.895 489.75 451.064 476.461 450 468L451 468C461.549 491.667 504.327 471.985 508.519 501C509.138 505.279 506.944 509.884 506 514C532.52 508.857 560.183 499.193 576.226 476C599.858 441.834 588.999 388.387 546 376L546 375C555.212 374.975 567.168 373.855 573.146 365.826C584.585 350.463 572.109 331.633 554 334.301C543.616 335.831 536.267 343.348 528 349C534.171 334.658 536.341 313.232 528.865 299C517.963 278.246 485.188 272.48 466 285.108C450.234 295.484 444.478 325.967 466 333.867C487.133 341.624 500.447 317.281 486 302C520.714 302.096 512.072 344.464 485 351.521C462 357.516 441.002 340.531 421 332.453C397.292 322.878 372.747 327.015 352 341C355.436 332.093 357.688 322.558 355.239 313C350.368 293.986 335.818 279.997 349.105 260C355.856 249.84 367.76 243.7 380 245.289C395.899 247.354 409.764 261.43 402.468 277.999C394.305 296.536 374.28 285.828 370 271C357.41 279.625 370.637 303.202 380 308.637C385.125 311.611 390.222 312 396 312C427.135 312 438.628 283.983 430 257C452.652 270.218 494.417 273.484 513 251C495.282 248.749 478.745 243.257 466.09 229.985C456.047 219.455 450.569 204.227 437 197.377C425.315 191.478 405.698 190.796 398.417 204.004C394.95 210.294 396 218.086 396 225C372.507 215.413 341.945 221.474 334 249L333 249C333.26 217.638 351.42 180.211 384 172.503C394.078 170.119 402.095 172.666 412 174C400.638 138.108 354.11 132.651 337 167L336 167C342.898 145.838 353.585 124.916 348.101 102C345.443 90.8924 339.249 80.438 332.996 71C328.755 64.5983 324.228 57.5845 318 53z"/>
<path style="fill:#000000; stroke:none;" d="M304 248L304 251L305 251L304 248M332.333 249.667L332.667 250.333L332.333 249.667M122 473C109.847 454.533 116.804 441.771 135 431C134.213 437.223 133.173 443.197 136.417 448.985C142.553 459.932 160.038 458.833 168.996 452.362C183.365 441.982 183.135 415.759 174 402C171.185 406.75 168.417 411.136 163.999 414.61C143.667 430.596 120.888 402.154 142.015 386.638C145.559 384.036 149.709 382.643 154 382C147.11 377.212 134.019 377.676 126 378.718C106.885 381.202 88.2011 390.528 78.5147 408C66.4118 429.831 69.9974 463.767 97 471.791C105.527 474.325 113.336 473.684 122 473M483 381L483 382C487.295 382.644 491.435 384.04 494.985 386.638C516.785 402.595 492.119 431.275 472.015 413.787C468.529 410.755 465.968 407.135 464 403L462 403C457.19 417.783 452.86 435.842 464.329 448.957C472.42 458.21 492.249 461.432 500.03 449.957C504.045 444.036 502.836 437.619 502 431C520.046 441.644 527.484 454.651 515 473C526.271 473.89 537.787 474.574 548 468.525C570.217 455.365 569.078 421.979 555.405 403C539.067 380.322 508.796 374.326 483 381M0 429L0 797L24 797L24 796L1 795L1 716C1 710.388 -1.80471 693.524 3.3179 690.024C7.45848 687.195 15.2368 688 20 688C34.4115 687.999 50.545 686.35 61.9066 697.185C75.002 709.674 69.1498 730.449 54 738L54 739C73.9998 745.976 79.7994 771.239 63.9599 785.815C53.2982 795.626 38.6261 796 25 796L25 797L637 797L637 795C631.014 795 619.559 797.209 614.379 793.972C610.638 791.635 608.427 785.653 606.189 782C599.701 771.41 593.581 755.938 584 748C573.23 762.292 576 777.648 576 795L557 795L557 689L576 689L576 736L577 736L599.576 704L611.09 690.028L635 689L610.4 720L600.789 734L609.681 751L636 793L637 793L637 431L636 431C636 486.242 601.875 533.607 549 549.975C525.224 557.334 501.226 555.938 477 559C485.078 574.357 481.393 586.906 464 593.304C446.73 599.657 427.869 600.505 410 604.424C376.723 611.723 337.828 628.899 319 659L318 659C312.829 650.054 304.053 642.552 296 636.211C278.831 622.692 259.252 612.208 238 606.895C218.299 601.97 197.35 601.098 178 594.971C159.28 589.044 150.476 577.177 160 559C139.929 556.463 120.045 557.083 100 552.996C63.7669 545.608 30.5713 522.696 14.2585 489C8.17585 476.436 4.64579 462.738 2.43827 449C1.43405 442.75 2.40652 434.735 0 429M160 558L161 559L160 558z"/>
<path style="fill:#01803d; stroke:none;" d="M389 795L408 795L408 752C424.523 752.046 432.602 757.678 436.349 774C437.525 779.125 438.248 790.614 442.703 793.972C446.854 797.101 457.951 795 463 795C459.785 781.102 456.27 751.195 441 746C458.089 735.873 468.572 709.034 448.985 694.637C438.586 686.994 424.23 687.574 412 687.964C406.332 688.145 395.336 686.187 390.603 690.024C386.244 693.558 389 710.696 389 716L389 795M1 795C18.9898 798.34 47.8979 799.407 62.9853 787.471C79.6975 774.249 75.6186 744.195 54 739C69.3423 729.37 76.8377 706.103 58.9961 694.105C48.495 687.043 36.0348 688 24 688C18.4268 688 7.24514 686.26 2.60339 690.024C-1.75562 693.558 1 710.696 1 716L1 795M81 795C85.974 795 97.2232 797.116 101.272 793.972C108.745 788.171 103.933 771.257 112.278 766.028C118.899 761.878 135.266 765 143 765C143.895 771.057 147.483 791.629 153.303 794.397C158.316 796.78 167.5 795 173 795C170.89 770.828 157.246 745.297 150.424 722C147.985 713.67 145.78 696.983 139.914 690.603C136.916 687.342 119.297 687.673 115.43 689.603C109.839 692.394 107.486 710.272 105.656 716C97.3289 742.062 87.1668 768.344 81 795M188 689L188 795L207 795L207 689L188 689M219 689L219 705L249 705L249 795L268 795L268 705L298 705L298 689L219 689M310 689L310 795L373 795L373 779L329 779L329 748L369 748L369 732L329 732L329 705L371 705L371 689L310 689M477 689L477 795L540 795L540 779L496 779L496 748L536 748L536 732L496 732L496 705L538 705L538 689L477 689M557 689L557 795L576 795L576.514 760L584 748L605.576 782L614.379 794.397L637 795L610.319 751L601.357 734L611.2 720L635 689L611.09 689.603L600.29 702L577 736L576 736L576 689L557 689z"/>
<path style="fill:#000000; stroke:none;" d="M20 733C25.3365 732.996 30.7426 732.662 36 731.675C55.8757 727.946 50.9606 703.237 32 703.004C29.0366 702.967 23.1317 701.947 21.0278 704.603C16.9713 709.725 20 726.551 20 733M408 738C413.727 738 419.36 737.815 425 736.686C445.629 732.555 442.199 704.579 422 703.09C418.677 702.845 411.409 701.799 409.028 704.742C404.431 710.423 408 730.723 408 738M126 707L114 750L139 750L126 707M20 747L20 781C28.304 781 37.5039 781.922 44.9599 777.467C53.986 772.073 54.6247 757.834 45.9568 751.702C39.1074 746.857 28.0592 747.005 20 747z"/>
</svg>
